<?xml version="1.0" encoding="utf-8"?>
<!-- Generator: Adobe Illustrator 22.1.0, SVG Export Plug-In . SVG Version: 6.00 Build 0)  -->
<svg version="1.1" id="Ebene_1" xmlns="http://www.w3.org/2000/svg" xmlns:xlink="http://www.w3.org/1999/xlink" x="0px" y="0px"
	 viewBox="0 0 128 128" style="enable-background:new 0 0 128 128;" xml:space="preserve">
<style type="text/css">
	.st0{fill:#BF1C1C;}
	.st1{fill:#FFFFFF;}
</style>
<path class="st0" d="M112.9,44.7c-1.9-11.4-10.2-20-21.5-22.4c-2-0.4-4-0.6-5.9-0.6c-10,0-17.1,5.5-21.4,10.4
	c-4.4-4.9-11.4-10.4-21.4-10.4c-1.9,0-3.9,0.2-5.9,0.6c-11.3,2.4-19.6,11-21.5,22.4c-1.7,9.9-0.6,36.1,45.8,64.4l3,1.9l3-1.9
	C113.5,80.8,114.6,54.7,112.9,44.7z"/>
<path class="st1" d="M63.6,84.3c-12,0-21.7-4.2-24.8-10.6c-0.4-0.9-0.5-2.8,0.9-3.1c1.3-0.3,2,0.2,2.5,1.1c2.4,5,11.7,8.2,21.5,8.2
	s18.2-3.2,20.6-8.2c0.4-0.9,2-1.4,3.4-1.1c1.3,0.3,1.3,2.2,0.9,3.1C85.3,80.1,75.6,84.3,63.6,84.3z"/>
</svg>
