<?xml version="1.0" encoding="utf-8"?>
<!-- Generator: Adobe Illustrator 22.1.0, SVG Export Plug-In . SVG Version: 6.00 Build 0)  -->
<svg version="1.1" id="Ebene_1" xmlns="http://www.w3.org/2000/svg" xmlns:xlink="http://www.w3.org/1999/xlink" x="0px" y="0px"
	 viewBox="0 0 16 16" style="enable-background:new 0 0 16 16;" xml:space="preserve">
<style type="text/css">
	.st0{fill:#BF1C1C;}
	.st1{fill:#FFFFFF;}
</style>
<path class="st0" d="M14.7,5.7c-0.3-1.6-1.4-2.7-2.9-3.1c-0.3-0.1-0.5-0.1-0.8-0.1C9.6,2.5,8.6,3.3,8,4C7.4,3.3,6.4,2.5,5.1,2.5
	c-0.3,0-0.5,0-0.8,0.1C2.7,3,1.6,4.1,1.3,5.7c-0.2,1.4-0.1,4.9,6.3,8.8L8,14.8l0.4-0.3C14.8,10.6,14.9,7.1,14.7,5.7z"/>
<path class="st1" d="M7.9,10.3c-1.4,0-2.5-0.6-2.9-1.6C5,8.5,5,8.2,5.2,8.2c0.2,0,0.2,0,0.3,0.2c0.3,0.8,1.4,1.2,2.5,1.2
	s2.1-0.5,2.4-1.2c0.1-0.1,0.2-0.2,0.4-0.2c0.2,0,0.2,0.3,0.1,0.5C10.5,9.6,9.3,10.3,7.9,10.3z"/>
</svg>
